<svg width="361" height="105" viewBox="0 0 361 105" fill="none" xmlns="http://www.w3.org/2000/svg">
<path d="M197.6 73.2H180.5V67.7H184.3V51.9C184.3 48.2 183.6 45.6 182.2 44C180.8 42.4 178.9 41.7 176.5 41.7C173.3 41.7 170.9 42.8 169.3 45.1C167.7 47.4 166.9 49.7 166.8 52V67.6H172.8V73.1H155.7V67.6H159.5V51.9C159.5 48.1 158.8 45.5 157.4 44C156 42.5 154.1 41.7 151.8 41.7C148.6 41.7 146.3 42.8 144.6 45C143 47.2 142.2 49.5 142.1 51.9V67.7H149V73.2H128.8V67.7H134.8V42.4H128.7V36.8H142.1V43.2C143.3 41.1 144.8 39.4 146.8 38C148.8 36.7 151.2 36 154.1 36C157 36 159.4 36.7 161.6 38.1C163.8 39.5 165.3 41.6 166.1 44.5C167.2 42 168.8 40 171 38.4C173.2 36.8 175.8 36 178.9 36C182.4 36 185.4 37.1 187.8 39.3C190.2 41.5 191.5 44.9 191.5 49.5V67.7H197.6V73.2ZM240.1 73.2H226.9V66C225.7 68.2 224.1 70.1 222 71.6C219.9 73.2 217.2 74 213.7 74C208.9 74 205 72.4 202.1 69.1C199.2 65.9 197.8 61.4 197.8 55.8C197.8 50.8 199.1 46.2 201.8 42.1C204.4 38 208.7 35.9 214.6 35.9C220.5 35.9 224.4 38.1 226.9 42.4V22.7H218.3V17.1H234.1V67.7H240.1V73.2ZM226.8 56.4V52C226.7 49 225.6 46.5 223.6 44.7C221.6 42.9 219.2 41.9 216.4 41.9C212.8 41.9 210.1 43.2 208.2 45.8C206.3 48.4 205.4 51.6 205.4 55.4C205.4 59.5 206.4 62.7 208.4 64.9C210.4 67.1 212.9 68.2 215.8 68.2C219 68.2 221.6 66.9 223.6 64.4C225.7 61.8 226.7 59.1 226.8 56.4ZM288.3 73.2H269V67.7H275V51.9C275 48.2 274.3 45.6 272.8 44C271.4 42.4 269.4 41.7 267.1 41.7C264 41.7 261.5 42.7 259.7 44.7C257.9 46.7 256.9 49.1 256.8 51.7V67.6H262.8V73.1H243.5V67.6H249.5V42.4H243.3V36.8H256.9V43C259.5 38.4 263.7 36.1 269.6 36.1C273.2 36.1 276.3 37.2 278.8 39.4C281.3 41.6 282.5 45 282.5 49.6V67.8H288.5V73.2H288.3Z" fill="white"/>
<path d="M42.0002 0.200195L13.4002 92.3002H1.7002L30.2002 0.200195H42.0002ZM52.4002 0.200195V92.3002H42.0002V0.200195H52.4002ZM92.7002 0.200195L64.2002 92.3002H52.5002L81.0002 0.200195H92.7002ZM103.1 0.200195V92.3002H92.7002V0.200195H103.1Z" fill="#89B5FC"/>
<path d="M294 95H361V103.8H294V95Z" fill="#89B5FC"/>
</svg>
